<svg xmlns="http://www.w3.org/2000/svg" viewBox="0 0 120 40" fill="none">
  <!-- AWS Logo simplified -->
  <g transform="translate(6, 10)">
    <path d="M5 6l2.5 12h-1.5l-0.4-2.5h-3.2l-0.4 2.5h-1.5l2.5-12h2zm-0.5 8l-1.2-6-1.2 6h2.4z" fill="#a1a1aa"/>
    <path d="M12 6l1.2 8 1.2-8h1.5l1.2 8 1.2-8h1.5l-2 12h-1.5l-1.2-8-1.2 8h-1.5l-2-12h1.6z" fill="#a1a1aa"/>
    <path d="M23 8.5c-1.2-0.4-2.4-0.8-2.4 0.8 0 1.2 1.2 1.6 2.4 2 2 0.8 3.2 2 3.2 4 0 2.8-2 3.6-4.4 3.6-1.2 0-2.4-0.4-3.6-0.8l0.4-1.6c1.2 0.4 2.4 0.8 3.2 0.8 1.6 0 2.4-0.4 2.4-2 0-1.2-0.8-1.6-2.4-2-2-0.8-3.2-1.6-3.2-4 0-2.8 2.4-3.6 4.4-3.6 0.8 0 2 0.4 2.8 0.8l-0.4 1.6c-0.8-0.4-1.6-0.4-2.4-0.4z" fill="#a1a1aa"/>
    <path d="M22 24c-6 2.4-12.4 3.2-18.8 2.4l0.8-2c5.6 0.8 10.8 0.4 16-1.6l2 1.2z" fill="#8b8b8b"/>
  </g>
  <!-- AWS Text -->
  <text x="44" y="23" font-family="system-ui, -apple-system, sans-serif" font-size="11" font-weight="500" fill="#a1a1aa">AWS</text>
  <text x="44" y="32" font-family="system-ui, -apple-system, sans-serif" font-size="8" fill="#71717a">Partner</text>
</svg>
