<svg xmlns="http://www.w3.org/2000/svg" viewBox="0 0 200 80" fill="none">
  <!-- Background -->
  <rect width="200" height="80" rx="8" fill="#232F3E"/>

  <!-- AWS Logo -->
  <g transform="translate(15, 20)">
    <!-- AWS smile/arrow -->
    <path d="M27.5 35c-7.5 3-15.5 4-23.5 3l1-2.5c7 1 13.5 0.5 20-2l2.5 1.5z" fill="#FF9900"/>
    <!-- AWS text -->
    <path d="M7 8l3 15h-2l-0.5-3h-4l-0.5 3h-2l3-15h3zm-1 10l-1.5-7.5-1.5 7.5h3z" fill="white"/>
    <path d="M17 8l1.5 10 1.5-10h2l1.5 10 1.5-10h2l-2.5 15h-2l-1.5-10-1.5 10h-2l-2.5-15h2z" fill="white"/>
    <path d="M30 11.5c-1.5-0.5-3-1-3 1 0 1.5 1.5 2 3 2.5 2.5 1 4 2.5 4 5 0 3.5-2.5 4.5-5.5 4.5-1.5 0-3-0.5-4.5-1l0.5-2c1.5 0.5 3 1 4 1 2 0 3-0.5 3-2.5 0-1.5-1-2-3-2.5-2.5-1-4-2-4-5 0-3.5 3-4.5 5.5-4.5 1 0 2.5 0.5 3.5 1l-0.5 2c-1-0.5-2-0.5-3-0.5z" fill="white"/>
  </g>

  <!-- Partner Text -->
  <text x="60" y="38" font-family="Arial, sans-serif" font-size="11" font-weight="bold" fill="white">PARTNER</text>
  <text x="60" y="52" font-family="Arial, sans-serif" font-size="9" fill="#FF9900">NETWORK MEMBER</text>

  <!-- Divider line -->
  <line x1="55" y1="22" x2="55" y2="58" stroke="#3D4F5F" stroke-width="1"/>
</svg>