<svg xmlns="http://www.w3.org/2000/svg" viewBox="0 0 120 40" fill="none">
  <!-- GitHub Octocat -->
  <path fill-rule="evenodd" clip-rule="evenodd" d="M20 6C12.27 6 6 12.27 6 20c0 6.18 4.01 11.42 9.57 13.27.7.13.96-.3.96-.67 0-.33-.01-1.2-.02-2.36-3.89.85-4.71-1.88-4.71-1.88-.64-1.62-1.55-2.05-1.55-2.05-1.27-.87.1-.85.1-.85 1.4.1 2.14 1.44 2.14 1.44 1.25 2.14 3.27 1.52 4.07 1.16.13-.91.49-1.52.89-1.87-3.11-.35-6.38-1.56-6.38-6.92 0-1.53.55-2.78 1.44-3.76-.14-.35-.62-1.78.14-3.71 0 0 1.17-.38 3.84 1.44 1.11-.31 2.31-.47 3.5-.47 1.19.01 2.39.16 3.5.47 2.66-1.81 3.83-1.44 3.83-1.44.77 1.93.29 3.36.14 3.71.9.98 1.44 2.23 1.44 3.76 0 5.38-3.28 6.56-6.4 6.91.5.43.95 1.29.95 2.6 0 1.88-.02 3.39-.02 3.85 0 .38.25.81.97.67C29.99 31.42 34 26.18 34 20c0-7.73-6.27-14-14-14z" fill="#a1a1aa"/>
  <!-- GitHub Text -->
  <text x="40" y="23" font-family="system-ui, -apple-system, sans-serif" font-size="11" font-weight="500" fill="#a1a1aa">GitHub</text>
  <text x="40" y="32" font-family="system-ui, -apple-system, sans-serif" font-size="8" fill="#71717a">Partner</text>
</svg>
