<svg xmlns="http://www.w3.org/2000/svg" viewBox="0 0 200 80" fill="none">
  <rect width="200" height="80" rx="8" fill="#0d1117"/>

  <!-- GitHub Octocat Logo -->
  <g transform="translate(15, 18)">
    <path fill-rule="evenodd" clip-rule="evenodd" d="M22 0C9.85 0 0 9.85 0 22c0 9.72 6.3 17.97 15.04 20.88 1.1.2 1.5-.48 1.5-1.06 0-.52-.02-1.9-.03-3.73-6.12 1.33-7.41-2.95-7.41-2.95-1-2.54-2.44-3.22-2.44-3.22-2-1.37.15-1.34.15-1.34 2.2.15 3.36 2.26 3.36 2.26 1.96 3.36 5.14 2.39 6.4 1.83.2-1.42.77-2.39 1.4-2.94-4.89-.55-10.03-2.44-10.03-10.88 0-2.4.86-4.37 2.26-5.91-.23-.56-.98-2.8.21-5.83 0 0 1.84-.59 6.04 2.26 1.75-.49 3.63-.73 5.5-.74 1.87.01 3.75.25 5.5.74 4.19-2.85 6.03-2.26 6.03-2.26 1.2 3.03.45 5.27.22 5.83 1.41 1.54 2.26 3.51 2.26 5.91 0 8.46-5.15 10.32-10.06 10.87.79.68 1.49 2.02 1.49 4.07 0 2.94-.03 5.31-.03 6.03 0 .59.4 1.27 1.51 1.06C37.7 39.97 44 31.72 44 22 44 9.85 34.15 0 22 0z" fill="white"/>
  </g>

  <!-- GitHub Text -->
  <text x="68" y="42" font-family="-apple-system, BlinkMacSystemFont, Segoe UI, Arial, sans-serif" font-size="16" font-weight="600" fill="white">GitHub</text>

  <!-- Partner Text -->
  <text x="68" y="56" font-family="-apple-system, BlinkMacSystemFont, Segoe UI, Arial, sans-serif" font-size="10" fill="#8b949e">Partner</text>
</svg>